<svg xmlns="http://www.w3.org/2000/svg" viewBox="0 0 463.38 424.63"><g data-name="Layer 2"><g data-name="Layer 1"><rect width="97.06" height="98.1" x="287.79" y="291.11" fill="#c1e3f7" rx="13" transform="rotate(43.96 336.334 340.208)"/><rect width="114.32" height="114.32" x="279.15" y="283" fill="none" stroke="#008ef8" stroke-linecap="round" stroke-linejoin="round" rx="13" transform="rotate(43.96 336.334 340.208)"/><path fill="#ffcd52" d="M319.79 423.47h-18.21V245.26h18.73l-.52 178.21z"/><ellipse cx="296.11" cy="389.9" fill="#fff" rx="19.68" ry="34.1"/><ellipse cx="296.11" cy="389.9" fill="none" stroke="#ff5061" stroke-linecap="round" stroke-linejoin="round" rx="19.68" ry="34.1"/><path fill="#ff5061" d="M313 404.89c2.8-6.46.69-10.42.69-15 0-9.63-3.22-20.54-9-27.38a52.49 52.49 0 0 0-2.46 15.13c.03 9.64 5.02 20.41 10.77 27.25Z"/><ellipse cx="326.39" cy="377.72" fill="#fff" rx="19.68" ry="34.1"/><path fill="#ff5061" d="M278.07 391c0 3.81-1.54 6.85.57 12 9-7.21 15.83-19.32 15.83-31.78a55.47 55.47 0 0 0-1.9-13c-9.05 7.1-14.5 20.28-14.5 32.78Z"/><ellipse cx="271.28" cy="369.22" fill="#fff" rx="19.68" ry="34.1"/><path fill="none" stroke="#ff5061" stroke-linecap="round" stroke-linejoin="round" d="M296.11 423.99v-51.13M296.11 392.89l-7.97-9.12M296.11 403.77l-11.48-13.13M296.11 414.98l-11.86-13.56M296.11 392.91l9.67-11.05M296.11 403.79l11.86-13.56M296.11 415l11.86-13.56"/><ellipse cx="271.28" cy="369.22" fill="none" stroke="#008ef8" stroke-miterlimit="10" rx="19.68" ry="34.1"/><path fill="none" stroke="#008ef8" stroke-linecap="round" stroke-linejoin="round" d="M271.28 352.18v71.95M271.28 372.21l-9.65-11.03M271.28 383.09l-11.86-13.57M271.28 394.3l-11.86-13.56M271.28 372.23l9.66-11.05M271.28 383.11l11.86-13.56M271.28 394.32l11.86-13.56"/><ellipse cx="326.39" cy="377.72" fill="none" stroke="#439916" stroke-linecap="round" stroke-linejoin="round" rx="19.68" ry="34.1"/><path fill="none" stroke="#439916" stroke-linecap="round" stroke-linejoin="round" d="M326.39 360.68v63.45M326.39 380.71l-9.65-11.03M326.39 391.59l-11.86-13.56M326.39 402.8l-11.86-13.56M326.39 380.73l9.67-11.05M326.39 391.61l11.86-13.56M326.39 402.82l11.86-13.56"/><path fill="#f46534" d="M213.14 0a78.7 78.7 0 0 1 1.2 7.89c.31 2.63.49 5.27.65 7.92s.23 5.29.21 7.94a79 79 0 0 1-.35 8 78.74 78.74 0 0 1-1.21-7.89c-.3-2.63-.48-5.27-.64-7.92s-.23-5.29-.21-7.94.08-5.33.35-8Z"/><path fill="#f46534" d="M229.85 15c-2.62.55-5.25.91-7.88 1.2s-5.28.49-7.92.65-5.29.22-7.94.21a78.84 78.84 0 0 1-8-.36c2.62-.55 5.25-.91 7.88-1.2s5.28-.49 7.92-.65 5.29-.22 7.94-.2a76 76 0 0 1 8 .35ZM234.07 19.44a38 38 0 0 1 1.07 5.3c.24 1.77.41 3.55.51 5.33s.11 3.56.06 5.35a36.47 36.47 0 0 1-.49 5.38 36.56 36.56 0 0 1-1.06-5.3c-.25-1.77-.42-3.55-.51-5.33s-.12-3.56-.07-5.35a36.35 36.35 0 0 1 .49-5.38Z"/><path fill="#f46534" d="M245.33 29.54a38 38 0 0 1-5.3 1.07c-1.77.24-3.55.41-5.33.51s-3.56.11-5.35.07a36.37 36.37 0 0 1-5.38-.5 36.29 36.29 0 0 1 5.3-1.06 63.386 63.386 0 0 1 10.67-.57 38 38 0 0 1 5.39.48ZM15 221c.55 2.63.91 5.26 1.2 7.89s.49 5.28.65 7.92.22 5.29.21 7.94a78.84 78.84 0 0 1-.36 8c-.55-2.62-.91-5.25-1.2-7.88s-.49-5.28-.65-7.92-.22-5.29-.2-7.94A76.2 76.2 0 0 1 15 221Z"/><path fill="#f46534" d="M31.72 236a78.7 78.7 0 0 1-7.89 1.2c-2.63.3-5.27.49-7.92.65s-5.29.23-7.94.21a79 79 0 0 1-8-.35 78.74 78.74 0 0 1 7.89-1.21c2.63-.3 5.27-.48 7.92-.64s5.29-.23 7.94-.21 5.33.09 8 .35ZM35.94 240.44a36.56 36.56 0 0 1 1.06 5.3c.24 1.77.42 3.55.51 5.33s.12 3.56.07 5.35a36.35 36.35 0 0 1-.49 5.38 36.33 36.33 0 0 1-1.09-5.3c-.24-1.77-.42-3.54-.51-5.32s-.11-3.57-.06-5.35a36.61 36.61 0 0 1 .51-5.39Z"/><path fill="#f46534" d="M47.19 250.55a36.29 36.29 0 0 1-5.3 1.06c-1.77.24-3.54.42-5.32.51s-3.57.12-5.36.07a36.6 36.6 0 0 1-5.38-.49 36.6 36.6 0 0 1 5.3-1.07c1.77-.24 3.55-.41 5.33-.51s3.56-.11 5.35-.06a36.35 36.35 0 0 1 5.38.49ZM431.2 195.54c.55 2.62.91 5.25 1.2 7.89s.49 5.27.65 7.91.23 5.29.21 7.95a79 79 0 0 1-.35 8 79.18 79.18 0 0 1-1.21-7.89c-.3-2.64-.49-5.28-.64-7.92s-.23-5.29-.21-7.94a78.83 78.83 0 0 1 .35-8Z"/><path fill="#f46534" d="M447.91 210.54a78.74 78.74 0 0 1-7.89 1.21c-2.63.3-5.27.48-7.91.65s-5.29.22-7.94.2a76.2 76.2 0 0 1-8-.35 76.33 76.33 0 0 1 7.89-1.2c2.64-.31 5.28-.49 7.92-.65s5.29-.22 7.94-.21 5.33.08 7.99.35ZM452.13 215a36.29 36.29 0 0 1 1.06 5.3c.25 1.77.42 3.54.51 5.32s.12 3.57.07 5.35a36.61 36.61 0 0 1-.49 5.39 38 38 0 0 1-1.07-5.3c-.24-1.77-.41-3.55-.5-5.33s-.12-3.56-.07-5.35a36.35 36.35 0 0 1 .49-5.38Z"/><path fill="#f46534" d="M463.38 225.08a37.57 37.57 0 0 1-5.29 1.07c-1.78.24-3.55.41-5.33.51s-3.56.11-5.35.06a36.35 36.35 0 0 1-5.38-.49 36.16 36.16 0 0 1 5.29-1.06c1.78-.25 3.55-.42 5.33-.51s3.57-.12 5.35-.07a36.35 36.35 0 0 1 5.38.49Z"/><path fill="#c1e3f7" d="M57.51 65.01h204.48v358.46H57.51z"/><path fill="#008ef8" d="M82.57 91.65h153.84v174.58H82.57z"/><path fill="#0234c1" d="M246.92 81.65H72.57L57.51 65.01h204.48l-15.07 16.64z"/><path fill="#008ef8" d="M82.57 276.95h153.84v119.88H82.57z"/><path fill="#0234c1" d="M72.57 406.83h174.35l15.07 16.64H57.51l15.06-16.64z"/><path fill="#0234c1" d="M72.57 408.65 57 423.95V64.49l15.57 17.16v327zM246.41 408.65l15.58 15.3V64.49l-15.58 17.16v327z"/><circle cx="242.06" cy="272.39" r="14.83" fill="#ffcd52"/><path fill="#ffcd52" d="M121.15 325.55h76.68v17.28h-76.68z"/><circle cx="159.49" cy="155.83" r="6.7" fill="#ffcd52"/><path fill="none" stroke="#fff" stroke-linecap="round" stroke-linejoin="round" d="m95.45 149.13 34.56-41.28M95.45 334.19l34.56-41.28M185.19 378.17l34.56-41.28M185.19 256.98l34.56-41.28M98.33 180.97l64.8-73.12M152.79 251.86l64.8-73.12M89.33 313.55l18.72-22.09M205.02 379.62l18.72-22.09"/><ellipse cx="56.78" cy="389.19" fill="#fff" rx="19.68" ry="34.1"/><ellipse cx="56.78" cy="389.19" fill="none" stroke="#ff5061" stroke-linecap="round" stroke-linejoin="round" rx="19.68" ry="34.1"/><path fill="#ff5061" d="M73.67 404.18c2.8-6.46.68-10.42.68-15 0-9.63-3.22-20.54-9-27.38a52.88 52.88 0 0 0-2.45 15.13c.04 9.64 5.02 20.41 10.77 27.25Z"/><ellipse cx="87.07" cy="377.01" fill="#fff" rx="19.68" ry="34.1"/><path fill="#ff5061" d="M38.75 390.25c0 3.81-1.55 6.85.56 12 9-7.21 15.83-19.32 15.83-31.78a55.47 55.47 0 0 0-1.9-13c-9.04 7.14-14.49 20.32-14.49 32.78Z"/><ellipse cx="31.95" cy="368.51" fill="#fff" rx="19.68" ry="34.1"/><path fill="none" stroke="#ff5061" stroke-linecap="round" stroke-linejoin="round" d="M56.78 423.29v-51.14M56.78 392.18l-7.96-9.11M56.78 403.06 45.3 389.93M56.78 414.27l-11.86-13.56M56.78 392.2l9.67-11.05M56.78 403.08l11.87-13.56M56.78 414.29l11.87-13.56"/><ellipse cx="31.95" cy="368.51" fill="none" stroke="#439916" stroke-linecap="round" stroke-linejoin="round" rx="19.68" ry="34.1"/><path fill="none" stroke="#439916" stroke-linecap="round" stroke-linejoin="round" d="M31.95 351.47v71.95M31.95 371.5l-9.65-11.03M31.95 382.38l-11.86-13.57M31.95 393.59l-11.86-13.56M31.95 371.52l9.67-11.05M31.95 382.4l11.86-13.56M31.95 393.61l11.86-13.56"/><ellipse cx="87.07" cy="377.01" fill="none" stroke="#ffcd52" stroke-linecap="round" stroke-linejoin="round" rx="19.68" ry="34.1"/><path fill="none" stroke="#ffcd52" stroke-linecap="round" stroke-linejoin="round" d="M87.06 359.97v63.45M87.07 380l-9.65-11.03M87.07 390.88l-11.86-13.56M87.07 402.09l-11.86-13.56M87.07 380.02l9.66-11.05M87.07 390.9l11.86-13.56M87.07 402.12l11.86-13.57"/><path fill="none" stroke="#008ef8" stroke-linecap="round" stroke-linejoin="round" d="m393.59 87-88.87-19.13a7.46 7.46 0 0 1-5.89-7.29V19.49a7.46 7.46 0 0 1 7.46-7.49h88.87a7.46 7.46 0 0 1 7.45 7.46v60.28a7.44 7.44 0 0 1-9.02 7.26ZM307.15 68.4l3.49 9.75 15.71-5.62-19.2-4.13z"/><path fill="#008ef8" d="m325.7 72.76.65-.23-19.2-4.13 1.24 3.45 17.31.91zM350.77 60.97h-2.85l-3.79-36.88 9.56-2.05-2.92 38.93z"/><circle cx="349.19" cy="66.16" r="2.24" fill="#008ef8"/><path fill="none" stroke="#545454" stroke-linecap="round" stroke-linejoin="round" d="M10.11 423.42h389.82"/><path fill="#ff5061" d="M348.57 115.34h-75.78l-37.89 65.63 37.89 65.62h75.78l37.89-65.62-37.89-65.63z"/><path fill="none" stroke="#ffcd52" stroke-linecap="round" stroke-linejoin="round" stroke-width="8" d="m282 142.58 57.36 72.72M339.36 142.58 282 215.3"/></g></g></svg>