<svg xmlns="http://www.w3.org/2000/svg" viewBox="0 0 3000 3000"><g data-name="Layer 2"><g data-name="Layer 1"><rect width="3000" height="3000" fill="none"/><path fill="#fff" stroke="#1a1a1a" stroke-linecap="round" stroke-linejoin="round" stroke-width="3.91" d="M423.08262,2416.68982H1629.56783s-37.4242,270.38755-627.301,248.08755S423.08262,2416.68982,423.08262,2416.68982Z"/><path fill="none" stroke="#1a1a1a" stroke-linecap="round" stroke-linejoin="round" stroke-width="5.865" d="M994.471,2413.03918c-11.18738-28.28686-87.678-231.59917,37.134-401.57844,131.13689-178.59278,432.30258-249.30853,707.5027-136.1875,12.64343-17.31331,139.387-185.63325,326.38919-185.07535,201.26545.60035,411.41887,196.64028,406.52062,471.41828-16.93837,82.06173-30.56206,174.1363-47.50044,256.198C1948.93994,2419.56014,1470.04812,2411.29324,994.471,2413.03918Z"/><path fill="#fff" stroke="#1a1a1a" stroke-linecap="round" stroke-linejoin="round" stroke-width="3.91" d="M420.88229 2417.8142H2285.70488c87.25809-113.46974 59.83748-278.80022-56.406-357.2392-115.555-77.97433-278.03337-42.51784-351.25686 79.48155-68.68265-113.20691-192.84343-178.5334-317.92561-166.65462-151.34138 14.37267-278.85876 139.37918-299.97828 302.54227-23.78479-19.636-218.92234-175.17812-479.45269-117.94033C551.41382 2208.37422 439.75335 2386.5637 420.88229 2417.8142zM1127.04426 442.67428v805.28058a83.30505 83.30505 0 0083.305 83.305H2330.33669a83.305 83.305 0 0083.305-83.305V442.67428z"/><line x1="1351.505" x2="1351.505" y1="442.674" y2="1331.26" fill="#fff" stroke="#1a1a1a" stroke-linecap="round" stroke-linejoin="round" stroke-width="3.91"/><line x1="2184.553" x2="2184.553" y1="442.674" y2="1331.26" fill="#fff" stroke="#1a1a1a" stroke-linecap="round" stroke-linejoin="round" stroke-width="3.91"/><path fill="#1c0311" stroke="#1a1a1a" stroke-linecap="round" stroke-linejoin="round" stroke-width="1.955" d="M2413.64171,417.22012a83.305,83.305,0,0,0-83.305-83.30475H1210.34928a83.305,83.305,0,0,0-83.305,83.30475v25.45416H2413.64171Z"/><circle cx="1294.426" cy="388.295" r="37.024" fill="#fff" stroke="#1a1a1a" stroke-linecap="round" stroke-linejoin="round" stroke-width="3.91"/><rect width="226.774" height="41.652" x="1404.727" y="367.469" fill="#fff" stroke="#1a1a1a" stroke-linecap="round" stroke-linejoin="round" stroke-width="3.91"/><rect width="127.271" height="33.168" x="1177.182" y="491.269" fill="#fff" stroke="#1a1a1a" stroke-linecap="round" stroke-linejoin="round" stroke-width="3.91"/><rect width="127.271" height="33.168" x="1177.182" y="578.431" fill="#fff" stroke="#1a1a1a" stroke-linecap="round" stroke-linejoin="round" stroke-width="3.91"/><rect width="127.271" height="33.168" x="1177.182" y="665.592" fill="#fff" stroke="#1a1a1a" stroke-linecap="round" stroke-linejoin="round" stroke-width="3.91"/><rect width="127.271" height="33.168" x="1177.182" y="752.754" fill="#1c0311" stroke="#1a1a1a" stroke-linecap="round" stroke-linejoin="round" stroke-width="1.955"/><polyline fill="none" stroke="#1a1a1a" stroke-linecap="round" stroke-linejoin="round" stroke-width="3.91" points="2101.249 696.285 2101.249 708.016 2089.518 708.016"/><line x1="2066.332" x2="1475.103" y1="708.016" y2="708.016" fill="none" stroke="#1a1a1a" stroke-dasharray="23.185 23.185" stroke-linecap="round" stroke-linejoin="round" stroke-width="3.91"/><polyline fill="none" stroke="#1a1a1a" stroke-linecap="round" stroke-linejoin="round" stroke-width="3.91" points="1463.51 708.016 1451.779 708.016 1451.779 696.285"/><line x1="1451.779" x2="1451.779" y1="671.042" y2="532.205" fill="none" stroke="#1a1a1a" stroke-dasharray="25.243 25.243" stroke-linecap="round" stroke-linejoin="round" stroke-width="3.91"/><polyline fill="none" stroke="#1a1a1a" stroke-linecap="round" stroke-linejoin="round" stroke-width="3.91" points="1451.779 519.583 1451.779 507.853 1463.51 507.853"/><line x1="1486.695" x2="2077.925" y1="507.853" y2="507.853" fill="none" stroke="#1a1a1a" stroke-dasharray="23.185 23.185" stroke-linecap="round" stroke-linejoin="round" stroke-width="3.91"/><polyline fill="none" stroke="#1a1a1a" stroke-linecap="round" stroke-linejoin="round" stroke-width="3.91" points="2089.518 507.853 2101.249 507.853 2101.249 519.583"/><line x1="2101.249" x2="2101.249" y1="544.827" y2="683.664" fill="none" stroke="#1a1a1a" stroke-dasharray="25.243 25.243" stroke-linecap="round" stroke-linejoin="round" stroke-width="3.91"/><polyline fill="none" stroke="#1a1a1a" stroke-linecap="round" stroke-linejoin="round" stroke-width="3.91" points="2101.249 961.627 2101.249 973.357 2089.518 973.357"/><line x1="2066.332" x2="1475.103" y1="973.357" y2="973.357" fill="none" stroke="#1a1a1a" stroke-dasharray="23.185 23.185" stroke-linecap="round" stroke-linejoin="round" stroke-width="3.91"/><polyline fill="none" stroke="#1a1a1a" stroke-linecap="round" stroke-linejoin="round" stroke-width="3.91" points="1463.51 973.357 1451.779 973.357 1451.779 961.627"/><line x1="1451.779" x2="1451.779" y1="936.384" y2="797.547" fill="none" stroke="#1a1a1a" stroke-dasharray="25.243 25.243" stroke-linecap="round" stroke-linejoin="round" stroke-width="3.91"/><polyline fill="none" stroke="#1a1a1a" stroke-linecap="round" stroke-linejoin="round" stroke-width="3.91" points="1451.779 784.925 1451.779 773.194 1463.51 773.194"/><line x1="1486.695" x2="2077.925" y1="773.194" y2="773.194" fill="none" stroke="#1a1a1a" stroke-dasharray="23.185 23.185" stroke-linecap="round" stroke-linejoin="round" stroke-width="3.91"/><polyline fill="none" stroke="#1a1a1a" stroke-linecap="round" stroke-linejoin="round" stroke-width="3.91" points="2089.518 773.194 2101.249 773.194 2101.249 784.925"/><line x1="2101.249" x2="2101.249" y1="810.168" y2="949.005" fill="none" stroke="#1a1a1a" stroke-dasharray="25.243 25.243" stroke-linecap="round" stroke-linejoin="round" stroke-width="3.91"/><polyline fill="none" stroke="#1a1a1a" stroke-linecap="round" stroke-linejoin="round" stroke-width="3.91" points="2101.249 1219.972 2101.249 1231.703 2089.518 1231.703"/><line x1="2066.332" x2="1475.103" y1="1231.703" y2="1231.703" fill="none" stroke="#1a1a1a" stroke-dasharray="23.185 23.185" stroke-linecap="round" stroke-linejoin="round" stroke-width="3.91"/><polyline fill="none" stroke="#1a1a1a" stroke-linecap="round" stroke-linejoin="round" stroke-width="3.91" points="1463.51 1231.703 1451.779 1231.703 1451.779 1219.972"/><line x1="1451.779" x2="1451.779" y1="1194.729" y2="1055.892" fill="none" stroke="#1a1a1a" stroke-dasharray="25.243 25.243" stroke-linecap="round" stroke-linejoin="round" stroke-width="3.91"/><polyline fill="none" stroke="#1a1a1a" stroke-linecap="round" stroke-linejoin="round" stroke-width="3.91" points="1451.779 1043.271 1451.779 1031.54 1463.51 1031.54"/><line x1="1486.695" x2="2077.925" y1="1031.54" y2="1031.54" fill="none" stroke="#1a1a1a" stroke-dasharray="23.185 23.185" stroke-linecap="round" stroke-linejoin="round" stroke-width="3.91"/><polyline fill="none" stroke="#1a1a1a" stroke-linecap="round" stroke-linejoin="round" stroke-width="3.91" points="2089.518 1031.54 2101.249 1031.54 2101.249 1043.271"/><line x1="2101.249" x2="2101.249" y1="1068.514" y2="1207.351" fill="none" stroke="#1a1a1a" stroke-dasharray="25.243 25.243" stroke-linecap="round" stroke-linejoin="round" stroke-width="3.91"/><path fill="#fff" stroke="#1a1a1a" stroke-linecap="round" stroke-linejoin="round" stroke-width="3.91" d="M1825.538,1103.91641l43.49192-87.14756L1783.91437,875.196l-97.36612-2.46157,64.26222,106.88732a56.82113,56.82113,0,0,1,7.6496,21.55312c2.63722,19.20038-5.1193,38.20984-21.44476,48.0253-16.34074,9.82406-36.75305,7.74984-52.47421-3.58447a56.835,56.835,0,0,1-15.44718-16.86483L1604.8317,921.86358l-43.50624,87.15615,85.11558,141.57282,97.38044,2.45321,28.70106,47.56923,82.80867-47.31911Z"/><polygon fill="#fff" stroke="#1a1a1a" stroke-linecap="round" stroke-linejoin="round" stroke-width="3.91" points="1855.331 1153.296 1772.523 1200.615 2083.719 1716.4 2166.632 1669.253 1855.331 1153.296"/><path fill="#1c0311" stroke="#1a1a1a" stroke-linecap="round" stroke-linejoin="round" stroke-width="1.955" d="M2166.63233,1669.25306l-82.9132,47.14655,28.15165,46.65885c14.94361,24.85561,45.34537,34.02191,67.92139,20.44907,22.56075-13.564,28.73877-44.7227,13.79516-69.57831Z"/><polygon fill="#fff" stroke="#1a1a1a" stroke-linecap="round" stroke-linejoin="round" stroke-width="3.91" points="2549.112 976.728 2798.213 976.728 2673.662 761.001 2549.112 976.728"/><path d="M2663.12407,937.068c0-6.43006,4.46532-11.074,10.53815-11.074,6.43006,0,10.53816,4.64393,10.53816,11.074,0,6.25145-4.1081,11.074-10.53816,11.074C2667.41078,948.142,2663.12407,943.31942,2663.12407,937.068Zm4.46532-25.54163-2.50058-85.73414h17.14683l-2.50058,85.73414Z"/><line x1="57" x2="2943" y1="2417.814" y2="2417.814" fill="none" stroke="#1a1a1a" stroke-linecap="round" stroke-linejoin="round" stroke-width="5.865"/><path fill="#fff" stroke="#1a1a1a" stroke-linecap="round" stroke-linejoin="round" stroke-width="3.91" d="M945.72708,1748.77945s39.59946,136.1835,48.292,177.71464,22.69725,213.69218,22.69725,242.6674,26.5681,230.53359,30.19,260.23318,74.61117,31.87273,117.3496,37.66778,113.00333,15.212,91.27192-28.25083-91.9963-81.49279-99.60229-84.39031-7.84745-3.74263-10.745-33.68368,8.20215-415.492,24.62143-617.35268-24.146-329.35157-24.146-329.35157l-146.789,16.41929-40.89412,4.8292"/><path fill="#fff" stroke="#1a1a1a" stroke-linecap="round" stroke-linejoin="round" stroke-width="3.91" d="M996.91662 1516.01192s8.69256 121.69589-10.62424 185.44135c-8.295 27.37337-97.05947 372.02922-111.54707 475.37414s-31.87274 205.724-24.146 232.76753 15.446 65.10847 32.83107 97.63931 14.97053 35.25317-13.03884 39.11653-114.44459-9.2649-127.96636-48.86436 9.65841-117.83253 4.8292-168.05623c-47.32618-269.46947-.49041-360.43913 11.09967-421.28707s-56.01874-203.79232-62.77962-307.13725 47.32618-210.5532 47.32618-210.5532l248.221 46.36034M760.68025 1575.79385s58.97727-9.12381 86.24805-71.08126"/><path fill="#1c0311" stroke="#1a1a1a" stroke-linecap="round" stroke-linejoin="round" stroke-width="1.955" d="M738.55432 1409.07372s70.02342 53.12122 189.30471 55.0529 197.03144-29.941 216.34825-58.91626l7.705-7.35085-7.22207-14.86348-406.13588 5.31212zM1164.24957 2467.05291c-42.7391-5.7921-113.72682-7.96667-117.34435-37.65838-2.68276-21.98939-17.94527-138.216-25.66807-208.81771 9.91783 7.13335 27.619 16.746 50.54327 16.13638 33.83741-.91456 64.20019-6.66585 74.54423-32.6589-1.58525 62.81812-2.05264 107.28462-1.13821 116.67379 2.88619 29.95592 3.12981 30.7891 10.73055 33.69526 7.62109 2.88594 77.87746 40.93033 99.60251 84.38069C1277.2649 2482.27473 1206.98868 2472.86522 1164.24957 2467.05291zM900.824 2593.0954c-28.005 3.88174-144.88148-56.00989-158.3965-95.59884-13.51453-39.6093 9.65337-117.85243 4.8371-168.07034q-4.54251-25.88118-7.94656-49.62847c8.45464 6.13756 23.24926 13.47409 45.36083 13.04726 32.84161-.63 63.34629-5.44652 76.14981-19.36765-9.1453 64.58609-15.48628 117.75084-10.22247 136.12269 7.7228 27.02942 54.55555 73.00527 68.56942 133.94813C927.43789 2579.47863 928.829 2589.23412 900.824 2593.0954z"/><path fill="#fff" stroke="#1a1a1a" stroke-linecap="round" stroke-linejoin="round" stroke-width="3.91" d="M1446.0324,851.87592s16.66075-69.41978,47.56764-82.45863,35.97756,5.79505,24.62893,10.38279a42.9189,42.9189,0,0,0-17.14366,12.31446s28.73375,16.17783,16.9022,43.46282-31.63127,26.07769-43.46281,23.18017c-4.10483,15.93637-4.10483,18.83389-4.10483,18.83389Z"/><path fill="#fff" stroke="#1a1a1a" stroke-linecap="round" stroke-linejoin="round" stroke-width="3.91" d="M1080.56922,840.28524s61.49784,44.43673,125.21039,99.60364c47.21311,40.88052,113.7277,84.75174,167.33184-.00076s65.19423-94.89382,65.19423-94.89382,37.66778,13.76323,38.39216,31.14836c-7.24381,55.0529-45.636,273.09137-157.19053,279.61079s-183.99259-76.78431-187.61449-81.13059-57.95043-226.00665-57.95043-226.00665"/><path fill="#fff" stroke="#1a1a1a" stroke-linecap="round" stroke-linejoin="round" stroke-width="3.91" d="M1120.03487,874.39256c-55.52073-62.12364-126.98161-68.69589-164.64939-66.34165-46.36033,2.89752-125.288,26.70262-145.8419,53.60414s-63.02108,449.09566-63.02108,449.09566L734.208,1396.97209s134.01036,74.61117,294.0984,46.36034c99.96448-19.55827,132.5616-63.097,132.5616-63.097s21.91313-265.99761-7.03257-405.20849"/><path fill="#54cafa" stroke="#1a1a1a" stroke-linecap="round" stroke-linejoin="round" stroke-width="3.91" d="M782.35609,999.98627c-17.42765,130.15543-35.83359,310.76444-35.83359,310.76444L734.208,1396.97209s134.01036,74.61117,294.0984,46.36034c99.96448-19.55827,132.5616-63.097,132.5616-63.097s26.04818-237.60378-2.89752-376.81466"/><path fill="#fff" stroke="#1a1a1a" stroke-linecap="round" stroke-linejoin="round" stroke-width="3.91" d="M991.6045,777.62694c113.00333,44.91157,82.57935-120.73,82.57935-120.73C1054.867,628.4046,966.49265,624.54123,951.0392,678.6283c-10.46457,40.38831,8.20965,87.40855,8.20965,87.40855l-28.4923,60.848s9.89987,24.99112,41.41041,24.99112,45.99815-15.212,45.99815-15.212l2.2594-51.58975"/><polygon fill="#fff" stroke="#1a1a1a" stroke-linecap="round" stroke-linejoin="round" stroke-width="3.91" points="1155.797 1089.11 1296.327 1066.655 1275.32 1293.386 1147.105 1305.7 1155.797 1089.11"/><path fill="#fff" stroke="#1a1a1a" stroke-linecap="round" stroke-linejoin="round" stroke-width="3.91" d="M1114.50769,1219.98184s19.61407-22.09681,34.64952-19.55827c8.69257,1.08657.99843,8.92858,5.89193,7.74851,14.074-3.394,28.49784-5.92761,37.2087-4.851,21.48995,2.65606,23.66309,19.55827,7.00234,35.49464s-66.643,18.59242-76.54285,18.59242S1114.50769,1219.98184,1114.50769,1219.98184Z"/><path fill="#fff" stroke="#1a1a1a" stroke-linecap="round" stroke-linejoin="round" stroke-width="3.91" d="M809.54358,861.65505s-211.519,253.5331-104.31076,421.58933c107.09371,167.87663,423.03809-11.59008,423.03809-11.59008l-8.69256-59.88211s-240.24054,82.49518-267.05487-57.4675C841.89924,1098.84935,891.64,1011.36031,891.64,1011.36031s9.17548-42.85917-8.934-77.26723S826.20433,860.56848,809.54358,861.65505Z"/><path fill="#1c0311" stroke="#1a1a1a" stroke-linecap="round" stroke-linejoin="round" stroke-width="1.955" d="M943.19175,756.9821s-35.85683,7.2438-33.68368-31.51054-9.41695-99.24011,54.69071-99.24011c0,0,11.59008-36.219,45.636-35.49463s51.06881,29.69959,74.97336,24.26674,29.3374-11.22789,29.3374-11.22789,13.03884,13.401,0,35.85682-40.5653,47.44691-81.13059,36.58121c-8.69257,12.67665-30.96658,5.33218-40.92749-13.401,1.811,27.52645-11.95228,35.49463-11.95228,35.49463s-18.70048-37.979-29.74738-9.07717c-9.007,23.56478,15.25978,25.37573,15.25978,25.37573s-11.59009,34.3942-11.59009,42.9126C946.45146,758.06867,943.19175,756.9821,943.19175,756.9821Z"/><path fill="#54cafa" stroke="#1a1a1a" stroke-linecap="round" stroke-linejoin="round" stroke-width="3.91" d="M1157.97051,1003.42075c-25.11783-14.83961-52.15538-13.55039-52.15538-13.55039s4.34628-46.72253,10.50351-72.438,18.4717-48.02193,18.4717-48.02193-23.05944-21.97287-41.65187-32.59712c-27.88864,23.18017-44.54939,140.74262-44.54939,140.74262s-75.33555-2.17314-105.03514,0c-4.34628-44.1872-23.63729-66.13145-34.14081-87.86285s-47.34834-61.9756-58.56814-63.07213-39.49045,16.20024-47.45864,25.255,6.15723,9.77913,6.15723,9.77913,92.04694,36.00618,82.09644,149.70526"/><polygon fill="#1c0311" stroke="#1a1a1a" stroke-linecap="round" stroke-linejoin="round" stroke-width="1.955" points="992.435 778.605 1020.231 795.189 1020.231 786.897 992.435 778.605"/><path fill="#fff" stroke="#1a1a1a" stroke-linecap="round" stroke-linejoin="round" stroke-width="3.91" d="M2652.03525,1451.73072c0,1.89641.0778,3.75368.19522,5.61119a85.36439,85.36439,0,1,1,66.68942-81.62634A76.63046,76.63046,0,0,0,2652.03525,1451.73072Z"/><path fill="#1c0311" stroke="#1a1a1a" stroke-linecap="round" stroke-linejoin="round" stroke-width="1.955" d="M2805.31661,1451.73072a76.6461,76.6461,0,0,1-153.08614,5.61119,85.40406,85.40406,0,0,0,66.68942-81.62634,76.62573,76.62573,0,0,1,86.39672,76.01515Z"/><polygon fill="#fff" stroke="#1a1a1a" stroke-linecap="round" stroke-linejoin="round" stroke-width="3.91" points="1670.382 1967.929 1560.005 1967.929 1541.742 2037.749 1688.645 2037.749 1670.382 1967.929"/><polygon fill="#1c0311" stroke="#1a1a1a" stroke-linecap="round" stroke-linejoin="round" stroke-width="1.955" points="1688.645 2037.749 1541.742 2037.749 1520.435 2119.205 1709.952 2119.205 1688.645 2037.749"/><polygon fill="#fff" stroke="#1a1a1a" stroke-linecap="round" stroke-linejoin="round" stroke-width="3.91" points="1709.952 2119.205 1520.435 2119.205 1500.65 2194.843 1729.737 2194.843 1709.952 2119.205"/><polygon fill="#1c0311" stroke="#1a1a1a" stroke-linecap="round" stroke-linejoin="round" stroke-width="1.955" points="1729.737 2194.843 1500.65 2194.843 1479.343 2276.299 1751.044 2276.299 1729.737 2194.843"/><polygon fill="#fff" stroke="#1a1a1a" stroke-linecap="round" stroke-linejoin="round" stroke-width="3.91" points="1479.343 2276.299 1453.439 2375.333 1776.948 2375.333 1751.044 2276.299 1479.343 2276.299"/><polygon fill="#1c0311" stroke="#1a1a1a" stroke-linecap="round" stroke-linejoin="round" stroke-width="1.955" points="1648.346 1883.685 1582.041 1883.685 1560.005 1967.929 1670.382 1967.929 1648.346 1883.685"/><rect width="443.213" height="44.6" x="1391.496" y="2368.064" fill="#1c0311" stroke="#1a1a1a" stroke-linecap="round" stroke-linejoin="round" stroke-width="1.955"/><path fill="#fff" stroke="#1a1a1a" stroke-linecap="round" stroke-linejoin="round" stroke-width="3.91" d="M763.03921,690.31138,772.354,722.424c2.97357,10.2514-9.42543,17.92049-17.26989,10.68186l-46.37615-42.79452H512.65161a73.48331,73.48331,0,0,1-73.48331-73.48332V560.72777a73.48332,73.48332,0,0,1,73.48331-73.48332h250.3876a73.48332,73.48332,0,0,1,73.48331,73.48332v56.10029A73.48331,73.48331,0,0,1,763.03921,690.31138Z"/><rect width="263.883" height="13.008" x="506.717" y="531.41" fill="#fff" stroke="#1a1a1a" stroke-linecap="round" stroke-linejoin="round" stroke-width="3.91"/><rect width="263.883" height="13.008" x="506.717" y="584.222" fill="#fff" stroke="#1a1a1a" stroke-linecap="round" stroke-linejoin="round" stroke-width="3.91"/><rect width="263.883" height="13.008" x="506.717" y="637.034" fill="#fff" stroke="#1a1a1a" stroke-linecap="round" stroke-linejoin="round" stroke-width="3.91"/><path fill="#fff" stroke="#1a1a1a" stroke-linecap="round" stroke-linejoin="round" stroke-width="3.91" d="M479.06265,1468.13269l-13.83017,19.73608a96.41209,96.41209,0,0,0-113.34638,1.971l-14.49622-19.25357A120.464,120.464,0,0,1,479.06265,1468.13269Z"/><path fill="#fff" stroke="#1a1a1a" stroke-linecap="round" stroke-linejoin="round" stroke-width="3.91" d="M514.96034 1415.87757l-20.83887 29.73771a145.27077 145.27077 0 00-170.78683 2.96982l-21.84246-29.0107A181.51146 181.51146 0 01514.96034 1415.87757zM451.39546 1507.61845l-13.84377 19.75648a48.16835 48.16835 0 00-56.66639.97861l-14.49618-19.26038A72.29545 72.29545 0 01451.39546 1507.61845zM432.93031 1573.915a24.10347 24.10347 0 11-37.54879-26.30791h.00681a24.0992 24.0992 0 0137.542 26.30791z"/><polygon fill="#fff" stroke="#1a1a1a" stroke-linecap="round" stroke-linejoin="round" stroke-width="3.91" points="2067.987 1987.059 1970.288 2416.69 2036.515 2416.69 2133.482 1987.059 2067.987 1987.059"/><polygon fill="#fff" stroke="#1a1a1a" stroke-linecap="round" stroke-linejoin="round" stroke-width="3.91" points="2542.611 1987.059 2444.913 2416.69 2511.14 2416.69 2608.106 1987.059 2542.611 1987.059"/><polygon fill="#fff" stroke="#1a1a1a" stroke-linecap="round" stroke-linejoin="round" stroke-width="3.91" points="2680.406 1987.059 2778.104 2416.69 2711.877 2416.69 2614.911 1987.059 2680.406 1987.059"/><polygon fill="#fff" stroke="#1a1a1a" stroke-linecap="round" stroke-linejoin="round" stroke-width="3.91" points="2205.781 1987.059 2303.48 2416.69 2237.253 2416.69 2140.286 1987.059 2205.781 1987.059"/><polygon fill="#1c0311" stroke="#1a1a1a" stroke-linecap="round" stroke-linejoin="round" stroke-width="1.955" points="1953.159 1883.685 1953.159 1991.863 2061.336 1883.685 1953.159 1883.685"/><polygon fill="#fff" stroke="#1a1a1a" stroke-linecap="round" stroke-linejoin="round" stroke-width="3.91" points="2061.336 1883.685 1953.159 1991.863 1953.159 2006.168 2031.85 2006.168 2154.334 1883.685 2061.336 1883.685"/><polygon fill="#1c0311" stroke="#1a1a1a" stroke-linecap="round" stroke-linejoin="round" stroke-width="1.955" points="2154.334 1883.685 2031.85 2006.168 2180.418 2006.168 2302.902 1883.685 2154.334 1883.685"/><polygon fill="#fff" stroke="#1a1a1a" stroke-linecap="round" stroke-linejoin="round" stroke-width="3.91" points="2302.902 1883.685 2180.418 2006.168 2283.622 2006.168 2406.106 1883.685 2302.902 1883.685"/><polygon fill="#fff" stroke="#1a1a1a" stroke-linecap="round" stroke-linejoin="round" stroke-width="3.91" points="2531.992 1883.685 2409.508 2006.168 2504.773 2006.168 2627.257 1883.685 2531.992 1883.685"/><polygon fill="#1c0311" stroke="#1a1a1a" stroke-linecap="round" stroke-linejoin="round" stroke-width="1.955" points="2725.924 1883.685 2627.257 1883.685 2504.773 2006.168 2603.441 2006.168 2725.924 1883.685"/><polygon fill="#fff" stroke="#1a1a1a" stroke-linecap="round" stroke-linejoin="round" stroke-width="3.91" points="2767.165 1883.685 2725.924 1883.685 2603.441 2006.168 2703.242 2006.168 2767.165 1942.245 2767.165 1883.685"/><polygon fill="#1c0311" stroke="#1a1a1a" stroke-linecap="round" stroke-linejoin="round" stroke-width="1.955" points="2767.165 1942.245 2703.242 2006.168 2767.165 2006.168 2767.165 1942.245"/><polygon fill="#1c0311" stroke="#1a1a1a" stroke-linecap="round" stroke-linejoin="round" stroke-width="1.955" points="2406.106 1883.685 2283.622 2006.168 2409.508 2006.168 2531.992 1883.685 2406.106 1883.685"/></g></g></svg>