<svg width="155" height="31" viewBox="0 0 155 31" fill="none" xmlns="http://www.w3.org/2000/svg">
<path d="M7.27228 15.4002L3.76438 18.8505L0.259521 15.4002L3.76438 11.95L7.27228 15.4002ZM15.7767 7.0224L21.7829 12.9379L25.2878 9.4877L15.7767 0.124939L6.26569 9.4877L9.77055 12.9379L15.7767 7.0224ZM27.7921 11.95L24.2872 15.4002L27.7921 18.8505L31.2939 15.4002L27.7921 11.95ZM15.7767 23.7781L9.77055 17.8655L6.26569 21.3128L15.7767 30.6755L25.2878 21.3128L21.7829 17.8655L15.7767 23.7781ZM15.7767 18.8505L19.2816 15.4002L15.7767 11.95L12.2719 15.4002L15.7767 18.8505ZM52.7658 19.1818V19.134C52.7658 16.8836 51.553 15.7584 49.5792 15.0182C50.792 14.3467 51.8168 13.2931 51.8168 11.4038V11.3561C51.8168 8.72364 49.6763 7.0224 46.1987 7.0224H38.3036V23.7781H46.3988C50.2402 23.7781 52.7718 22.247 52.7718 19.1818H52.7658ZM48.0966 12.0187C48.0966 13.2632 47.0506 13.7915 45.3983 13.7915H41.951V10.2547H45.6469C47.2265 10.2547 48.1027 10.8755 48.1027 11.9769L48.0966 12.0187ZM49.0456 18.7221C49.0456 19.9667 48.0481 20.5398 46.3927 20.5398H41.951V16.8597H46.2775C48.1997 16.8597 49.0517 17.5551 49.0517 18.6803L49.0456 18.7221ZM60.6335 23.7781V7.0224H56.877V23.7781H60.6335ZM80.7622 23.7781V7.0224H77.0542V17.3402L69.0803 7.0224H65.627V23.7781H69.3229V13.126L77.5636 23.7781H80.7622ZM101.503 23.7781L94.1965 6.90302H90.7432L83.4515 23.7781H87.2686L88.83 20.0204H96.0277L97.5831 23.7781H101.503ZM94.6968 16.7642H90.1611L92.4228 11.3322L94.6968 16.7642ZM119.352 23.7781V7.0224H115.644V17.3402L107.667 7.0224H104.217V23.7781H107.91V13.126L116.153 23.7781H119.352ZM138.68 21.074L136.3 18.7042C134.963 19.8981 133.772 20.6651 131.825 20.6651C128.909 20.6651 126.889 18.2774 126.889 15.4002V15.3525C126.889 12.4813 128.957 10.1354 131.825 10.1354C133.526 10.1354 134.857 10.8517 136.179 12.0246L138.553 9.32056C136.973 7.78945 135.054 6.73588 131.843 6.73588C126.616 6.73588 122.969 10.6368 122.969 15.3913V15.439C122.969 20.2502 126.689 24.0556 131.698 24.0556C134.975 24.0646 136.919 22.9155 138.668 21.074H138.68ZM154.658 23.7781V20.495H145.405V16.9701H153.43V13.6871H145.405V10.3025H154.525V7.01942H141.685V23.7751L154.658 23.7781Z" fill="#F0B90B"/>
</svg>
