<svg width="150" height="27" viewBox="0 0 150 27" fill="none" xmlns="http://www.w3.org/2000/svg">
<path d="M30.2449 7.49829C24.816 7.49829 20.574 11.5553 20.574 16.9864C20.574 22.4175 24.7088 26.4397 30.2449 26.4397C35.781 26.4397 39.9877 22.348 39.9877 16.9516C39.9877 11.59 35.8529 7.49829 30.2449 7.49829ZM30.2802 22.5243C27.1886 22.5243 24.9231 20.1606 24.9231 16.9864C24.9231 13.776 27.152 11.4137 30.2435 11.4137C33.3718 11.4137 35.6359 13.8121 35.6359 16.9864C35.6359 20.1606 33.3718 22.5243 30.2802 22.5243ZM41.1733 11.6247H43.8701V26.0872H48.184V7.85083H41.1733V11.6247ZM9.71751 11.4137C11.983 11.4137 13.7804 12.7892 14.4627 14.835H19.0289C18.2014 10.4616 14.5346 7.49829 9.75414 7.49829C4.3252 7.49829 0.083252 11.5553 0.083252 16.9864C0.083252 22.4175 4.21803 26.4397 9.75414 26.4397C14.4275 26.4397 18.1661 23.4764 18.9936 19.0669H14.4641C13.817 21.1128 12.0196 22.5243 9.75414 22.5243C6.62592 22.5243 4.43372 20.1606 4.43372 16.9864C4.43237 13.7774 6.58929 11.4137 9.71751 11.4137ZM123.139 15.2236L119.976 14.7656C118.466 14.5546 117.387 14.0605 117.387 12.896C117.387 11.626 118.79 10.9917 120.695 10.9917C122.78 10.9917 124.11 11.8731 124.398 13.3193H128.568C128.1 9.65097 125.224 7.49962 120.803 7.49962C116.237 7.49962 113.217 9.79252 113.217 13.0376C113.217 16.141 115.195 17.9412 119.185 18.5047L122.348 18.9628C123.895 19.1738 124.757 19.7747 124.757 20.9031C124.757 22.3494 123.248 22.949 121.163 22.949C118.61 22.949 117.172 21.926 116.956 20.3743H112.714C113.11 23.9372 115.949 26.441 121.126 26.441C125.836 26.441 128.963 24.3244 128.963 20.6908C128.963 17.4457 126.697 15.7524 123.139 15.2236ZM46.0271 0.337831C44.4453 0.337831 43.2583 1.46625 43.2583 3.01799C43.2583 4.56974 44.444 5.69816 46.0271 5.69816C47.6088 5.69816 48.7958 4.56974 48.7958 3.01799C48.7944 1.46625 47.6088 0.337831 46.0271 0.337831ZM109.335 14.0939C109.335 10.1437 106.89 7.49829 101.714 7.49829C96.8246 7.49829 94.0925 9.93273 93.5526 13.6719H97.8312C98.0469 12.2256 99.1973 11.0264 101.642 11.0264C103.835 11.0264 104.914 11.9786 104.914 13.1431C104.914 14.6601 102.936 15.0473 100.491 15.2944C97.1841 15.6469 93.086 16.7754 93.086 21.0086C93.086 24.2897 95.5671 26.405 99.5215 26.405C102.613 26.405 104.554 25.135 105.526 23.1239C105.669 24.9227 107.035 26.0872 108.941 26.0872H111.458V22.3133H109.336V14.0939H109.335ZM105.091 18.6797C105.091 21.1141 102.935 22.9129 100.31 22.9129C98.6913 22.9129 97.3252 22.2425 97.3252 20.8323C97.3252 19.0335 99.5188 18.5394 101.532 18.3284C103.473 18.1522 104.552 17.7288 105.091 16.9169V18.6797ZM82.1915 7.49829C79.7822 7.49829 77.7691 8.48649 76.3312 10.1437V0.16156H72.0173V26.0885H76.2593V23.6901C77.6972 25.4181 79.747 26.441 82.1915 26.441C87.3681 26.441 91.2872 22.4201 91.2872 16.9877C91.2872 11.5553 87.2975 7.49829 82.1915 7.49829ZM81.5444 22.5243C78.4528 22.5243 76.1874 20.1606 76.1874 16.9864C76.1874 13.8121 78.4881 11.4137 81.5797 11.4137C84.7079 11.4137 86.9001 13.7774 86.9001 16.9864C86.9014 20.162 84.636 22.5243 81.5444 22.5243ZM61.7007 7.49829C58.8967 7.49829 57.0626 8.62671 55.9842 10.2145V7.85083H51.7056V26.0872H56.0195V16.1758C56.0195 13.3888 57.8169 11.4137 60.4771 11.4137C62.9582 11.4137 64.5033 13.1417 64.5033 15.6469V26.0885H68.8172V15.3305C68.8186 10.7433 66.4107 7.49829 61.7007 7.49829ZM149.525 16.3868C149.525 11.1667 145.643 7.49829 140.43 7.49829C134.894 7.49829 130.831 11.59 130.831 16.9864C130.831 22.6658 135.181 26.4397 140.502 26.4397C144.996 26.4397 148.519 23.829 149.417 20.1259H144.923C144.276 21.7484 142.694 22.6658 140.572 22.6658C137.803 22.6658 135.718 20.9725 135.252 18.0093H149.524V16.3868H149.525ZM135.505 14.9766C136.189 12.4366 138.13 11.2027 140.359 11.2027C142.804 11.2027 144.673 12.5782 145.104 14.9766H135.505Z" fill="#0052FF"/>
</svg>
