<svg width="165" height="31" viewBox="0 0 165 31" fill="none" xmlns="http://www.w3.org/2000/svg">
<path d="M145.184 16.0135C144.336 15.4445 143.412 15.0652 142.487 14.572C141.909 14.2686 141.292 13.9651 140.791 13.5478C139.944 12.865 140.098 11.4994 141.023 10.8925C142.294 10.0579 144.414 10.5131 144.645 12.2201C144.645 12.2581 144.683 12.296 144.722 12.296H146.649C146.687 12.296 146.726 12.2581 146.726 12.2201C146.61 11.0442 146.148 10.0579 145.3 9.41303C144.491 8.80609 143.566 8.50262 142.564 8.50262C137.477 8.50262 137.015 13.8133 139.751 15.4824C140.059 15.6721 142.757 16.9998 143.72 17.6067C144.683 18.1757 144.953 19.2379 144.568 20.0724C144.182 20.8311 143.219 21.3622 142.256 21.2863C141.177 21.2104 140.367 20.6414 140.059 19.7689C140.021 19.6172 139.982 19.3137 139.982 19.162C139.982 19.1241 139.944 19.0861 139.905 19.0861H137.824C137.786 19.0861 137.747 19.1241 137.747 19.162C137.747 20.6414 138.132 21.476 139.134 22.2346C140.098 22.9554 141.138 23.2589 142.256 23.2589C145.107 23.2589 146.571 21.6656 146.88 20.0345C147.111 18.4413 146.649 16.9998 145.184 16.0135Z" fill="#8F9CA9"/>
<path d="M54.3584 8.80585H53.4336H52.4317C52.3932 8.80585 52.3546 8.84378 52.3546 8.84378L50.6206 14.4201C50.5821 14.496 50.505 14.496 50.4665 14.4201L48.7324 8.84378C48.7324 8.80584 48.6939 8.80585 48.6553 8.80585H47.6534H46.7286H45.4955C45.457 8.80585 45.4185 8.84378 45.4185 8.88171V23.107C45.4185 23.1449 45.457 23.1829 45.4955 23.1829H47.5764C47.6149 23.1829 47.6534 23.1449 47.6534 23.107V12.2958C47.6534 12.2199 47.7691 12.182 47.8076 12.2578L49.5416 17.8721L49.6572 18.2514C49.6572 18.2894 49.6958 18.2894 49.7343 18.2894H51.3527C51.3913 18.2894 51.4298 18.2514 51.4298 18.2514L51.5454 17.8721L53.2795 12.2578C53.318 12.182 53.4336 12.182 53.4336 12.2958V23.107C53.4336 23.1449 53.4721 23.1829 53.5107 23.1829H55.5915C55.63 23.1829 55.6686 23.1449 55.6686 23.107V8.88171C55.6686 8.84378 55.63 8.80585 55.5915 8.80585H54.3584Z" fill="#8F9CA9"/>
<path d="M113.162 8.80585C113.123 8.80585 113.085 8.84378 113.085 8.84378L111.351 14.4201C111.312 14.496 111.235 14.496 111.197 14.4201L109.463 8.84378C109.463 8.80584 109.424 8.80585 109.386 8.80585H106.187C106.149 8.80585 106.11 8.84378 106.11 8.88171V23.107C106.11 23.1449 106.149 23.1829 106.187 23.1829H108.268C108.307 23.1829 108.345 23.1449 108.345 23.107V12.2958C108.345 12.2199 108.461 12.182 108.499 12.2578L110.233 17.8721L110.349 18.2514C110.349 18.2894 110.387 18.2894 110.426 18.2894H112.044C112.083 18.2894 112.121 18.2514 112.121 18.2514L112.237 17.8721L113.971 12.2578C114.01 12.182 114.125 12.182 114.125 12.2958V23.107C114.125 23.1449 114.164 23.1829 114.202 23.1829H116.283C116.322 23.1829 116.36 23.1449 116.36 23.107V8.88171C116.36 8.84378 116.322 8.80585 116.283 8.80585H113.162Z" fill="#8F9CA9"/>
<path d="M86.1879 8.80585H82.296H80.2151H76.2846C76.2461 8.80585 76.2075 8.84378 76.2075 8.88171V10.6646C76.2075 10.7025 76.2461 10.7405 76.2846 10.7405H80.0995V23.107C80.0995 23.1449 80.138 23.1829 80.1766 23.1829H82.2574C82.296 23.1829 82.3345 23.1449 82.3345 23.107V10.7405H86.1494C86.1879 10.7405 86.2265 10.7025 86.2265 10.6646V8.88171C86.265 8.84378 86.2265 8.80585 86.1879 8.80585Z" fill="#8F9CA9"/>
<path d="M98.5188 23.1829H100.407C100.445 23.1829 100.484 23.1449 100.484 23.0691L96.5535 8.80594C96.5535 8.76801 96.515 8.76801 96.4764 8.76801H95.7443H94.4727H93.7405C93.702 8.76801 93.6634 8.80594 93.6634 8.80594L89.7329 23.0691C89.7329 23.107 89.7714 23.1829 89.81 23.1829H91.6982C91.7367 23.1829 91.7752 23.1449 91.7752 23.1449L92.9313 18.9722C92.9313 18.9343 92.9698 18.9343 93.0083 18.9343H97.2086C97.2471 18.9343 97.2857 18.9722 97.2857 18.9722L98.4417 23.1449C98.4417 23.1449 98.4802 23.1829 98.5188 23.1829ZM93.5093 16.8858L95.0507 11.3096C95.0892 11.2337 95.1663 11.2337 95.2048 11.3096L96.7462 16.8858C96.7462 16.9238 96.7076 16.9996 96.6691 16.9996H93.6249C93.5478 16.9996 93.5093 16.9238 93.5093 16.8858Z" fill="#8F9CA9"/>
<path d="M130.965 23.1829H132.853C132.892 23.1829 132.93 23.1449 132.93 23.0691L129 8.80594C129 8.76801 128.961 8.76801 128.922 8.76801H128.19H126.919H126.187C126.148 8.76801 126.109 8.80594 126.109 8.80594L122.179 23.0691C122.179 23.107 122.217 23.1829 122.256 23.1829H124.144C124.183 23.1829 124.221 23.1449 124.221 23.1449L125.377 18.9722C125.377 18.9343 125.416 18.9343 125.454 18.9343H129.655C129.693 18.9343 129.732 18.9722 129.732 18.9722L130.888 23.1449C130.888 23.1449 130.926 23.1829 130.965 23.1829ZM125.955 16.8858L127.497 11.3096C127.535 11.2337 127.612 11.2337 127.651 11.3096L129.192 16.8858C129.192 16.9238 129.154 16.9996 129.115 16.9996H126.071C125.994 16.9996 125.955 16.9238 125.955 16.8858Z" fill="#8F9CA9"/>
<path d="M64.1461 21.0585V16.6582C64.1461 16.6203 64.1847 16.5823 64.2232 16.5823H69.8107C69.8492 16.5823 69.8878 16.5444 69.8878 16.5065V14.7236C69.8878 14.6856 69.8492 14.6477 69.8107 14.6477H64.2232C64.1847 14.6477 64.1461 14.6098 64.1461 14.5718V10.8163C64.1461 10.7784 64.1847 10.7405 64.2232 10.7405H70.5428C70.5814 10.7405 70.6199 10.7025 70.6199 10.6646V8.88171C70.6199 8.84378 70.5814 8.80585 70.5428 8.80585H64.1461H61.9882C61.9497 8.80585 61.9111 8.84378 61.9111 8.88171V10.7405V14.6856V16.6203V21.1724V23.107C61.9111 23.1449 61.9497 23.1829 61.9882 23.1829H64.1461H70.8126C70.8511 23.1829 70.8896 23.1449 70.8896 23.107V21.2482C70.8896 21.2103 70.8511 21.1724 70.8126 21.1724H64.1847C64.1847 21.1344 64.1461 21.0965 64.1461 21.0585Z" fill="#8F9CA9"/>
<path d="M164.297 23.0311L157.053 15.672C157.014 15.634 157.014 15.5961 157.053 15.5582L163.565 8.88181C163.603 8.84387 163.565 8.76801 163.526 8.76801H160.868C160.829 8.76801 160.829 8.76801 160.829 8.80594L155.28 14.496C155.241 14.534 155.164 14.496 155.164 14.4581V8.91974C155.164 8.8818 155.126 8.84387 155.087 8.84387H152.968C152.929 8.84387 152.891 8.8818 152.891 8.91974V23.1449C152.891 23.1829 152.929 23.2208 152.968 23.2208H155.049C155.087 23.2208 155.126 23.1829 155.126 23.1449V16.8858C155.126 16.81 155.203 16.772 155.241 16.8479L161.484 23.2208L161.523 23.2587H164.181C164.297 23.1829 164.336 23.0691 164.297 23.0311Z" fill="#8F9CA9"/>
<path d="M31.122 1.14331L18.4827 10.3991L20.8333 4.93667L31.122 1.14331Z" fill="#E17726" stroke="#E17726" stroke-width="0.385345" stroke-linecap="round" stroke-linejoin="round"/>
<path d="M1.91284 1.14331L14.475 10.475L12.24 4.93667L1.91284 1.14331Z" fill="#E27625" stroke="#E27625" stroke-width="0.385345" stroke-linecap="round" stroke-linejoin="round"/>
<path d="M26.5751 22.5759L23.1841 27.659L30.4286 29.6315L32.4709 22.6897L26.5751 22.5759Z" fill="#E27625" stroke="#E27625" stroke-width="0.385345" stroke-linecap="round" stroke-linejoin="round"/>
<path d="M0.602783 22.6897L2.64512 29.6315L9.85107 27.659L6.49857 22.5759L0.602783 22.6897Z" fill="#E27625" stroke="#E27625" stroke-width="0.385345" stroke-linecap="round" stroke-linejoin="round"/>
<path d="M9.46571 14.0028L7.46191 16.9996L14.5908 17.303L14.3596 9.71631L9.46571 14.0028Z" fill="#E27625" stroke="#E27625" stroke-width="0.385345" stroke-linecap="round" stroke-linejoin="round"/>
<path d="M23.6078 14.0028L18.6368 9.64044L18.4827 17.303L25.6116 16.9996L23.6078 14.0028Z" fill="#E27625" stroke="#E27625" stroke-width="0.385345" stroke-linecap="round" stroke-linejoin="round"/>
<path d="M9.85107 27.659L14.1669 25.6106L10.4291 22.7277L9.85107 27.659Z" fill="#E27625" stroke="#E27625" stroke-width="0.385345" stroke-linecap="round" stroke-linejoin="round"/>
<path d="M18.9067 25.6106L23.1841 27.659L22.6061 22.7277L18.9067 25.6106Z" fill="#E27625" stroke="#E27625" stroke-width="0.385345" stroke-linecap="round" stroke-linejoin="round"/>
<path d="M23.1841 27.659L18.9067 25.6105L19.2536 28.3418L19.215 29.5177L23.1841 27.659Z" fill="#D5BFB2" stroke="#D5BFB2" stroke-width="0.385345" stroke-linecap="round" stroke-linejoin="round"/>
<path d="M9.85107 27.659L13.8587 29.5177L13.8201 28.3418L14.1669 25.6105L9.85107 27.659Z" fill="#D5BFB2" stroke="#D5BFB2" stroke-width="0.385345" stroke-linecap="round" stroke-linejoin="round"/>
<path d="M13.9357 20.9069L10.3521 19.8826L12.8568 18.7445L13.9357 20.9069Z" fill="#233447" stroke="#233447" stroke-width="0.385345" stroke-linecap="round" stroke-linejoin="round"/>
<path d="M19.1379 20.9069L20.1784 18.7445L22.7216 19.8826L19.1379 20.9069Z" fill="#233447" stroke="#233447" stroke-width="0.385345" stroke-linecap="round" stroke-linejoin="round"/>
<path d="M9.85099 27.659L10.4675 22.5757L6.49854 22.6895L9.85099 27.659Z" fill="#CC6228" stroke="#CC6228" stroke-width="0.385345" stroke-linecap="round" stroke-linejoin="round"/>
<path d="M22.606 22.5757L23.184 27.659L26.575 22.6895L22.606 22.5757Z" fill="#CC6228" stroke="#CC6228" stroke-width="0.385345" stroke-linecap="round" stroke-linejoin="round"/>
<path d="M25.6116 16.9997L18.4827 17.3032L19.1378 20.9069L20.1782 18.7446L22.7215 19.8827L25.6116 16.9997Z" fill="#CC6228" stroke="#CC6228" stroke-width="0.385345" stroke-linecap="round" stroke-linejoin="round"/>
<path d="M10.352 19.8825L12.8567 18.7445L13.9357 20.9067L14.5908 17.303L7.46191 16.9996L10.352 19.8825Z" fill="#CC6228" stroke="#CC6228" stroke-width="0.385345" stroke-linecap="round" stroke-linejoin="round"/>
<path d="M7.46191 16.9997L10.429 22.7277L10.3519 19.8827L7.46191 16.9997Z" fill="#E27525" stroke="#E27525" stroke-width="0.385345" stroke-linecap="round" stroke-linejoin="round"/>
<path d="M22.7216 19.8827L22.606 22.7277L25.6116 16.9997L22.7216 19.8827Z" fill="#E27525" stroke="#E27525" stroke-width="0.385345" stroke-linecap="round" stroke-linejoin="round"/>
<path d="M14.5909 17.303L13.9358 20.9068L14.745 25.1933L14.9377 19.5411L14.5909 17.303Z" fill="#E27525" stroke="#E27525" stroke-width="0.385345" stroke-linecap="round" stroke-linejoin="round"/>
<path d="M18.4826 17.303L18.1357 19.5411L18.2899 25.1933L19.1376 20.9068L18.4826 17.303Z" fill="#E27525" stroke="#E27525" stroke-width="0.385345" stroke-linecap="round" stroke-linejoin="round"/>
<path d="M19.138 20.9068L18.2903 25.1933L18.9068 25.6105L22.6061 22.7276L22.7217 19.8826L19.138 20.9068Z" fill="#F5841F" stroke="#F5841F" stroke-width="0.385345" stroke-linecap="round" stroke-linejoin="round"/>
<path d="M10.3521 19.8826L10.4291 22.7276L14.1669 25.6105L14.7449 25.1933L13.9357 20.9068L10.3521 19.8826Z" fill="#F5841F" stroke="#F5841F" stroke-width="0.385345" stroke-linecap="round" stroke-linejoin="round"/>
<path d="M19.2149 29.5177L19.2535 28.3418L18.9066 28.0762H14.1284L13.8201 28.3418L13.8586 29.5177L9.85107 27.659L11.2383 28.797L14.0899 30.7315H18.9452L21.7967 28.797L23.184 27.659L19.2149 29.5177Z" fill="#C0AC9D" stroke="#C0AC9D" stroke-width="0.385345" stroke-linecap="round" stroke-linejoin="round"/>
<path d="M18.9069 25.6106L18.2903 25.1934H14.7451L14.1671 25.6106L13.8203 28.3419L14.1286 28.0763H18.9069L19.2537 28.3419L18.9069 25.6106Z" fill="#8F9CA9" stroke="#8F9CA9" stroke-width="0.385345" stroke-linecap="round" stroke-linejoin="round"/>
<path d="M31.6616 11.0061L32.7406 5.88507L31.1222 1.14337L18.9067 10.0957L23.6079 14.0029L30.2359 15.8995L31.7002 14.2305L31.0836 13.7753L32.0855 12.8649L31.3148 12.2579L32.3167 11.4992L31.6616 11.0061Z" fill="#763E1A" stroke="#763E1A" stroke-width="0.385345" stroke-linecap="round" stroke-linejoin="round"/>
<path d="M0.333008 5.88507L1.41197 11.0061L0.718352 11.4992L1.72025 12.2579L0.949558 12.8649L1.98999 13.7753L1.3349 14.2305L2.79921 15.8995L9.46567 14.0029L14.1669 10.0957L1.91292 1.14337L0.333008 5.88507Z" fill="#763E1A" stroke="#763E1A" stroke-width="0.385345" stroke-linecap="round" stroke-linejoin="round"/>
<path d="M30.2358 15.8996L23.6079 14.0029L25.6116 16.9996L22.606 22.7277L26.575 22.6897H32.4708L30.2358 15.8996Z" fill="#F5841F" stroke="#F5841F" stroke-width="0.385345" stroke-linecap="round" stroke-linejoin="round"/>
<path d="M9.46566 14.0029L2.79924 15.8996L0.602783 22.6897H6.49852L10.429 22.7277L7.46188 16.9996L9.46566 14.0029Z" fill="#F5841F" stroke="#F5841F" stroke-width="0.385345" stroke-linecap="round" stroke-linejoin="round"/>
<path d="M18.4828 17.303L18.9067 10.0957L20.8334 4.93671H12.2402L14.1669 10.0957L14.5908 17.303L14.745 19.579V25.1932H18.2901V19.579L18.4828 17.303Z" fill="#F5841F" stroke="#F5841F" stroke-width="0.385345" stroke-linecap="round" stroke-linejoin="round"/>
</svg>
