<svg width="150" height="41" viewBox="0 0 150 41" fill="none" xmlns="http://www.w3.org/2000/svg">
<path d="M16.789 23.3835H14.9081C13.7796 23.3835 17.6249 28.6913 20.4045 29.288C21.0314 29.4114 21.3449 29.72 21.3449 30.3166V34.2049C21.324 34.9455 20.8851 35.2953 20.1537 35.1924C14.8454 34.3283 10.9792 31.5304 8.57583 26.778C8.22055 26.0991 7.94887 25.3997 7.73988 24.659C7.3428 23.4452 7.30101 23.3835 5.98439 23.3424C4.3543 23.3012 3.28846 22.4783 2.93319 21.0176C2.53611 19.3718 3.85273 17.6436 5.60822 17.5408C5.859 17.5202 6.08888 17.5202 6.33967 17.5408C7.09202 17.6025 7.4891 17.191 7.67718 16.5327C8.13695 14.8869 8.86841 13.3233 9.85064 11.9244C10.6657 10.7517 11.0837 10.7106 12.1077 11.6775C12.8809 12.4181 13.6333 13.1999 14.4066 13.9405C14.9081 14.4137 15.0335 14.928 14.5946 15.5041C14.3648 15.8126 14.1767 16.1418 14.0095 16.4916C13.6542 17.2116 13.8423 17.5202 14.6573 17.5202C16.0784 17.5408 17.4787 17.5202 18.9207 17.5202C20.4254 17.5408 21.533 18.446 21.8883 19.9272C22.16 21.1205 21.4912 22.5812 20.1955 23.0543C19.4431 23.3424 18.5445 23.3012 17.7085 23.3629C17.416 23.4041 17.1025 23.3835 16.789 23.3835Z" fill="#007EA4"/>
<path d="M23.0585 5.58786C27.9697 5.79359 32.2957 8.18003 35.2633 12.85C36.2874 14.4753 35.9948 15.9771 34.5319 16.8617C32.9645 17.8492 31.209 17.4378 30.2268 15.8742C28.743 13.5084 26.6531 12.0066 23.8736 11.4922C21.6583 11.1014 19.3595 11.5128 17.4368 12.6855C16.5591 13.2204 16.2874 13.1586 15.5559 12.4386L13.2153 10.1344C12.5465 9.43497 12.5674 8.9618 13.3616 8.38576C15.8485 6.59593 19.255 5.52614 23.0585 5.58786ZM23.2675 32.2502V30.2752C23.2257 29.8226 23.5392 29.4317 23.999 29.37C26.7994 28.7939 28.8683 27.251 30.3312 24.8645C30.9791 23.7948 32.0031 23.3833 33.2153 23.5685C34.3229 23.733 35.1797 24.2885 35.6604 25.3171C35.9739 25.996 35.9321 26.7778 35.5768 27.4361C33.3406 31.6124 29.2236 34.472 24.4796 35.1509C23.6646 35.2538 23.2884 34.9658 23.2675 34.1634C23.2466 33.5463 23.2675 32.9085 23.2675 32.2502Z" fill="#1AA64A"/>
<path d="M46.3399 14.4549V27.7653H43.7693V14.4549H39.5896V12.3359H50.4778V14.4549H46.3399Z" fill="#007EA4"/>
<path d="M50.4775 22.7867C50.4566 22.0666 50.6029 21.3671 50.9164 20.7294C51.1881 20.071 51.6061 19.495 52.1285 19.0012C52.651 18.5075 53.2571 18.1166 53.9258 17.8697C55.3051 17.3348 56.8307 17.3348 58.21 17.8697C58.8997 18.1372 59.5057 18.5486 60.0073 19.063C60.5298 19.5567 60.9477 20.1533 61.2194 20.8117C61.7837 22.1283 61.8046 23.6096 61.2403 24.9262C60.9686 25.5846 60.5507 26.1606 60.0282 26.6544C58.9624 27.683 57.5204 28.2591 56.0157 28.2385C55.2842 28.2385 54.5737 28.115 53.884 27.8476C53.2153 27.5801 52.5883 27.1893 52.0867 26.6749C51.5643 26.1812 51.1672 25.5846 50.8746 24.9262C50.6238 24.2473 50.4984 23.5273 50.4775 22.7867ZM59.234 22.8278C59.2549 21.9432 58.9415 21.0997 58.3145 20.4619C57.7502 19.8447 56.9352 19.495 56.0784 19.5156C55.2215 19.5156 54.4274 19.8653 53.8422 20.4619C52.6092 21.7992 52.6092 23.8359 53.8422 25.1731C54.9916 26.3869 56.9352 26.4486 58.1682 25.3171C58.21 25.276 58.2727 25.2348 58.3145 25.1731C58.9415 24.5354 59.2549 23.6919 59.234 22.8278Z" fill="#007EA4"/>
<path d="M64.1662 27.8065V11.451H66.4859V21.9432L70.7492 17.7875H73.6124L69.0147 22.1901L74.0721 27.7859H71.0418L66.465 22.6221V27.7859H64.1453V27.8065H64.1662Z" fill="#007EA4"/>
<path d="M74.3023 22.7867C74.2814 22.0666 74.4276 21.3671 74.7411 20.7294C75.0128 20.071 75.4308 19.495 75.9532 19.0012C76.4757 18.5075 77.0818 18.1166 77.7505 17.8697C79.1298 17.3348 80.6554 17.3348 82.0347 17.8697C82.7244 18.1372 83.3304 18.5486 83.832 19.063C84.3545 19.5567 84.7724 20.1533 85.0441 20.8117C85.6084 22.1283 85.6293 23.6096 85.065 24.9262C84.7933 25.5846 84.3754 26.1606 83.8529 26.6544C82.7871 27.683 81.3451 28.2591 79.8404 28.2385C79.1089 28.2385 78.3984 28.115 77.7087 27.8476C77.04 27.5801 76.413 27.1893 75.9114 26.6749C75.389 26.1812 74.9919 25.5846 74.6993 24.9262C74.4485 24.2473 74.3023 23.5273 74.3023 22.7867ZM83.0379 22.8278C83.0588 21.9432 82.7453 21.0997 82.1183 20.4619C81.5541 19.8447 80.739 19.495 79.8822 19.5156C79.0253 19.5156 78.2312 19.8653 77.646 20.4619C76.4339 21.7992 76.4339 23.8359 77.646 25.1731C78.7954 26.3869 80.739 26.4486 81.972 25.3171C82.0138 25.276 82.0765 25.2348 82.1183 25.1731C82.7453 24.5354 83.0797 23.6919 83.0379 22.8278Z" fill="#007EA4"/>
<path d="M95.5561 20.6471C95.2217 20.2563 94.8037 19.9682 94.323 19.7831C93.8424 19.5773 93.3199 19.4539 92.7974 19.4745C91.857 19.4745 91.0629 19.7625 90.4986 20.3797C89.9343 20.9969 89.6418 21.7787 89.6418 22.7867C89.6418 23.7948 89.9343 24.6383 90.4986 25.2555C91.0629 25.8727 91.8779 26.1607 92.9019 26.1607C93.4244 26.1813 93.9469 26.0578 94.4066 25.8521C94.8664 25.6258 95.2635 25.2966 95.5561 24.9058V27.5597C95.1172 27.8065 94.6574 27.9711 94.1768 28.0946C93.6752 28.218 93.1318 28.2797 92.6094 28.2797C91.0211 28.2797 89.7254 27.7654 88.7013 26.7779C87.6773 25.7904 87.2175 24.4737 87.2175 22.869C87.2175 21.2643 87.74 19.9477 88.7849 18.9807C89.8298 18.0138 91.1882 17.4995 92.8601 17.4995C93.3617 17.4995 93.8424 17.5406 94.323 17.6641C94.7619 17.7669 95.1799 17.9315 95.5561 18.1372V20.6471ZM100.258 19.3716C100.446 18.7956 100.781 18.3018 101.261 17.9109C101.7 17.5818 102.244 17.4172 102.787 17.4378C103.121 17.4378 103.435 17.4789 103.748 17.5406C104.083 17.6229 104.396 17.7463 104.689 17.8904L103.853 19.8242C103.665 19.6802 103.435 19.5773 103.205 19.5156C102.954 19.4333 102.682 19.3922 102.432 19.4128C101.658 19.4128 101.115 19.7008 100.76 20.318C100.405 20.9352 100.237 21.9638 100.237 23.4039V27.8065H97.9176V17.7875H100.237V19.3716H100.258Z" fill="#1AA64A"/>
<path d="M107.782 32.4971H105.378L108.179 26.9219L104.438 17.767H107.029L108.889 22.9308L109.182 23.8771C109.266 24.2063 109.328 24.5355 109.37 24.8852C109.558 24.3092 109.767 23.7537 110.039 23.2188L110.102 23.0954L112.609 17.767H115.138L107.782 32.4971ZM116.371 32.4971V17.7876H118.691V19.4334C118.942 18.8162 119.401 18.3019 119.987 17.9727C120.634 17.6024 121.366 17.4379 122.118 17.4379C123.393 17.3967 124.605 17.9522 125.399 18.9191C126.235 19.9066 126.653 21.2027 126.653 22.7868C126.653 24.4532 126.256 25.7904 125.42 26.7573C124.584 27.7242 123.456 28.1974 122.035 28.1974C120.676 28.2591 119.401 27.6008 118.67 26.4899V32.4971H116.371ZM118.628 22.7662C118.628 23.7948 118.9 24.6178 119.401 25.2555C119.903 25.8521 120.676 26.2019 121.47 26.1813C122.348 26.1813 123.038 25.8933 123.518 25.3172C123.999 24.7412 124.25 23.9183 124.25 22.8485C124.25 21.7787 123.999 20.9764 123.498 20.3798C122.975 19.7832 122.223 19.454 121.429 19.4746C120.551 19.4746 119.861 19.7626 119.381 20.3592C118.9 20.9558 118.628 21.7376 118.628 22.7662ZM129.704 27.8065V19.8037H127.928V17.7876H129.704V14.0022H132.024V17.7876H133.801V19.8037H132.024V27.8065H129.704ZM135.075 22.7868C135.055 22.0667 135.222 21.3673 135.514 20.7295C136.079 19.4128 137.165 18.3842 138.503 17.8699C139.882 17.335 141.408 17.335 142.787 17.8699C143.477 18.1373 144.083 18.5488 144.584 19.0631C145.107 19.5569 145.525 20.1535 145.796 20.8118C146.361 22.1284 146.382 23.6097 145.817 24.9263C145.546 25.5847 145.128 26.1607 144.605 26.6545C143.539 27.6831 142.097 28.2386 140.593 28.2386C139.861 28.2386 139.151 28.1151 138.461 27.8477C137.792 27.5802 137.165 27.1894 136.664 26.675C136.141 26.1813 135.744 25.5847 135.452 24.9263C135.201 24.2269 135.055 23.5068 135.075 22.7868ZM143.832 22.8279C143.853 21.9433 143.518 21.0998 142.892 20.4621C142.327 19.8449 141.512 19.4951 140.655 19.5157C139.799 19.5157 139.004 19.8654 138.419 20.4621C137.207 21.7993 137.207 23.836 138.419 25.1732C139.569 26.387 141.512 26.4487 142.745 25.3172C142.787 25.2761 142.85 25.2349 142.892 25.1732C143.498 24.5355 143.832 23.692 143.832 22.8279Z" fill="#1AA64A"/>
</svg>
