<svg width="140" height="36" viewBox="0 0 140 36" fill="none" xmlns="http://www.w3.org/2000/svg">
<path d="M46.9666 14.7347H43.1711V12.5327H53.5066V14.7347H49.7111V24.2089H46.9666V14.7347ZM56.1068 16.4193C56.4229 15.9856 56.8467 15.6575 57.3775 15.435C57.9196 15.2129 58.5408 15.1014 59.2411 15.1014V17.5036C58.9477 17.4812 58.7499 17.4701 58.6481 17.4701C57.8914 17.4701 57.2984 17.6814 56.8691 18.104C56.4398 18.5154 56.2251 19.1381 56.2251 19.9721V24.2089H53.582V15.2349H56.1068V16.4193ZM69.0462 15.2349V24.2089H66.5382V23.1412C66.1881 23.5303 65.7701 23.8306 65.2844 24.0419C64.7988 24.242 64.2735 24.3423 63.7087 24.3423C62.5113 24.3423 61.5626 24.003 60.8623 23.3247C60.162 22.6465 59.8118 21.6401 59.8118 20.3056V15.2349H62.4549V19.922C62.4549 21.3675 63.0706 22.0905 64.3017 22.0905C64.9343 22.0905 65.4427 21.8904 65.8269 21.4898C66.2108 21.0783 66.4027 20.4726 66.4027 19.6717V15.2349H69.0462ZM73.5453 24.3423C72.7881 24.3423 72.0483 24.2532 71.3256 24.0755C70.6025 23.8862 70.0264 23.6529 69.5971 23.3749L70.4784 21.5067C70.8849 21.7624 71.3761 21.9737 71.9523 22.1402C72.5284 22.296 73.0933 22.3739 73.6467 22.3739C74.765 22.3739 75.3243 22.1017 75.3243 21.5565C75.3243 21.3008 75.1716 21.1173 74.8668 21.0062C74.5617 20.8952 74.0928 20.8003 73.4603 20.7225C72.7149 20.6114 72.0992 20.4834 71.6135 20.3392C71.1278 20.1946 70.7044 19.9386 70.3428 19.5719C69.9927 19.2048 69.8176 18.6823 69.8176 18.0037C69.8176 17.4369 69.9813 16.9364 70.3088 16.5026C70.6476 16.0577 71.1333 15.713 71.7658 15.4685C72.4098 15.224 73.1665 15.1014 74.0364 15.1014C74.6804 15.1014 75.3184 15.1739 75.951 15.3185C76.5949 15.4519 77.126 15.6409 77.544 15.8853L76.6627 17.7369C75.8609 17.2923 74.9855 17.0698 74.0364 17.0698C73.4716 17.0698 73.0482 17.1477 72.7658 17.3031C72.4834 17.4589 72.342 17.659 72.342 17.9038C72.342 18.1818 72.4948 18.3762 72.7995 18.4876C73.1046 18.5987 73.5903 18.7043 74.2566 18.8046C75.0023 18.9268 75.6122 19.0602 76.0865 19.2048C76.5612 19.3382 76.9733 19.5885 77.3235 19.9555C77.6736 20.3222 77.8487 20.8339 77.8487 21.4898C77.8487 22.0458 77.6795 22.5408 77.3407 22.9743C77.0015 23.408 76.5045 23.7473 75.8495 23.9918C75.2056 24.2255 74.4375 24.3423 73.5453 24.3423ZM84.3426 23.7751C84.0829 23.964 83.7609 24.1086 83.3767 24.2089C83.0042 24.2976 82.6086 24.3423 82.1907 24.3423C81.1065 24.3423 80.2647 24.0697 79.6662 23.5249C79.0787 22.98 78.785 22.1792 78.785 21.1231V17.4369H77.3788V15.435H78.785V13.2502H81.4281V15.435H83.6987V17.4369H81.4281V21.0895C81.4281 21.4678 81.5244 21.7624 81.7163 21.9737C81.9196 22.1738 82.202 22.274 82.5635 22.274C82.9815 22.274 83.3371 22.1626 83.6309 21.9401L84.3426 23.7751ZM106.705 12.5327L102.825 24.2089H99.8763L97.2669 16.3025L94.5729 24.2089H91.6415L87.7446 12.5327H90.591L93.2682 20.7394L96.064 12.5327H98.6053L101.317 20.8061L104.078 12.5327H106.705ZM110.032 15.1014C111.444 15.1014 112.529 15.435 113.286 16.1024C114.042 16.7583 114.421 17.7535 114.421 19.088V24.2089H111.947V23.0911C111.45 23.9251 110.524 24.3423 109.168 24.3423C108.468 24.3423 107.858 24.2255 107.338 23.9918C106.83 23.7585 106.44 23.4358 106.169 23.0244C105.898 22.613 105.763 22.146 105.763 21.6232C105.763 20.7895 106.079 20.1333 106.712 19.6552C107.355 19.177 108.344 18.938 109.677 18.938H111.778C111.778 18.3708 111.603 17.937 111.252 17.637C110.902 17.3255 110.377 17.1697 109.677 17.1697C109.191 17.1697 108.711 17.2476 108.236 17.4034C107.773 17.548 107.378 17.7481 107.05 18.0037L106.101 16.1857C106.598 15.841 107.191 15.5742 107.88 15.3852C108.581 15.1959 109.298 15.1014 110.032 15.1014ZM109.829 22.5906C110.281 22.5906 110.682 22.4907 111.032 22.2906C111.382 22.0793 111.631 21.7735 111.778 21.3733V20.4556H109.965C108.88 20.4556 108.338 20.8061 108.338 21.5067C108.338 21.8402 108.468 22.1071 108.728 22.3072C108.999 22.4961 109.366 22.5906 109.829 22.5906ZM115.796 11.8325H118.44V24.2089H115.796V11.8325ZM119.876 11.8325H122.52V24.2089H119.876V11.8325ZM132.885 19.755C132.885 19.7886 132.869 20.0222 132.835 20.4556H125.939C126.063 21.0116 126.356 21.4508 126.819 21.7735C127.283 22.0959 127.859 22.2571 128.548 22.2571C129.022 22.2571 129.44 22.1904 129.802 22.057C130.174 21.9124 130.519 21.6902 130.835 21.3899L132.242 22.891C131.383 23.8584 130.129 24.3423 128.48 24.3423C127.452 24.3423 126.543 24.1476 125.752 23.7585C124.961 23.3579 124.351 22.8077 123.922 22.1071C123.493 21.4065 123.278 20.6114 123.278 19.7219C123.278 18.8435 123.487 18.0538 123.905 17.3532C124.335 16.6418 124.916 16.0912 125.65 15.7022C126.396 15.3016 127.226 15.1014 128.141 15.1014C129.034 15.1014 129.841 15.2907 130.564 15.6686C131.287 16.0469 131.852 16.5917 132.258 17.3031C132.676 18.0037 132.885 18.8211 132.885 19.755ZM128.158 17.0698C127.559 17.0698 127.057 17.2364 126.65 17.5703C126.243 17.9038 125.995 18.3596 125.904 18.938H130.395C130.304 18.3708 130.056 17.9204 129.649 17.5869C129.242 17.2422 128.745 17.0698 128.158 17.0698ZM139.508 23.7751C139.248 23.964 138.926 24.1086 138.542 24.2089C138.17 24.2976 137.774 24.3423 137.356 24.3423C136.272 24.3423 135.43 24.0697 134.832 23.5249C134.244 22.98 133.951 22.1792 133.951 21.1231V17.4369H132.544V15.435H133.951V13.2502H136.594V15.435H138.864V17.4369H136.594V21.0895C136.594 21.4678 136.69 21.7624 136.882 21.9737C137.085 22.1738 137.367 22.274 137.729 22.274C138.147 22.274 138.503 22.1626 138.797 21.9401L139.508 23.7751Z" fill="#3375BB"/>
<path d="M23.8484 1.0882H12.3641C5.88091 1.0882 0.625244 6.26191 0.625244 12.644V23.9492C0.625244 30.3313 5.88091 35.5051 12.3641 35.5051H23.8484C30.3316 35.5051 35.5872 30.3313 35.5872 23.9492V12.644C35.5872 6.26191 30.3316 1.0882 23.8484 1.0882Z" fill="white" stroke="#DFE5EC" stroke-width="0.366284"/>
<path d="M1.96069 18.5452C1.96069 9.71298 9.23396 2.55322 18.2059 2.55322C27.178 2.55322 34.4514 9.71298 34.4514 18.5452C34.4514 27.3775 27.178 34.5374 18.2059 34.5374C9.23396 34.5374 1.96069 27.3775 1.96069 18.5452Z" fill="white"/>
<path d="M18.2153 8.98737C21.4936 11.6827 25.2531 11.5164 26.3271 11.5164C26.0923 26.8445 24.3019 23.8048 18.2153 28.1029C12.1289 23.8048 10.3499 26.8445 10.115 11.5164C11.1779 11.5164 14.9372 11.6827 18.2153 8.98737Z" stroke="#3375BB" stroke-width="2.22079" stroke-miterlimit="10" stroke-linecap="round" stroke-linejoin="round"/>
</svg>
